HIERARCHY
ROOT Hips
{
	OFFSET 0.000000 89.005402 0.000000
	CHANNELS 6 Xposition Yposition Zposition Xrotation Yrotation Zrotation
	JOINT Spine
	{
		OFFSET 0.116900 10.681000 0.373400
		CHANNELS 3 Xrotation Yrotation Zrotation
		JOINT Spine1
		{
			OFFSET 0.000000 13.840401 0.053500
			CHANNELS 3 Xrotation Yrotation Zrotation
			JOINT Spine2
			{
				OFFSET 0.000000 14.712700 -0.366200
				CHANNELS 3 Xrotation Yrotation Zrotation
				JOINT Neck
				{
					OFFSET 0.000000 35.415497 -3.314200
					CHANNELS 3 Xrotation Yrotation Zrotation
					JOINT Head
					{
						OFFSET 0.000000 16.899200 1.218300
						CHANNELS 3 Xrotation Yrotation Zrotation
						JOINT HeadTop_End
						{
							OFFSET 0.000000 22.206207 2.192500
							CHANNELS 3 Xrotation Yrotation Zrotation
							End Site
							{
								OFFSET 0.000000 22.314178 0.000000
							}
						}
					}
				}
				JOINT LeftShoulder
				{
					OFFSET 12.896400 26.716293 -4.548400
					CHANNELS 3 Xrotation Yrotation Zrotation
					JOINT LeftArm
					{
						OFFSET 19.027000 -4.857010 -1.718400
						CHANNELS 3 Xrotation Yrotation Zrotation
						JOINT LeftForeArm
						{
							OFFSET 24.179897 0.000000 0.000000
							CHANNELS 3 Xrotation Yrotation Zrotation
							JOINT LeftHand
							{
								OFFSET 27.156403 0.000000 0.000000
								CHANNELS 3 Xrotation Yrotation Zrotation
								JOINT LeftHandIndex1
								{
									OFFSET 16.441200 0.000000 0.000000
									CHANNELS 3 Xrotation Yrotation Zrotation
									JOINT LeftHandIndex2
									{
										OFFSET 4.821899 0.000000 0.000000
										CHANNELS 3 Xrotation Yrotation Zrotation
										JOINT LeftHandIndex3
										{
											OFFSET 6.386497 0.000000 0.000000
											CHANNELS 3 Xrotation Yrotation Zrotation
											JOINT LeftHandIndex4
											{
												OFFSET 5.188988 0.000000 0.000000
												CHANNELS 3 Xrotation Yrotation Zrotation
												End Site
												{
													OFFSET -0.178703 5.185913 0.000177
												}
											}
										}
									}
								}
								JOINT LeftHandThumb1
								{
									OFFSET 6.534897 -5.032593 5.900300
									CHANNELS 3 Xrotation Yrotation Zrotation
									JOINT LeftHandThumb2
									{
										OFFSET 3.818176 -2.204422 2.204423
										CHANNELS 3 Xrotation Yrotation Zrotation
										JOINT LeftHandThumb3
										{
											OFFSET 3.252098 -1.877594 1.877601
											CHANNELS 3 Xrotation Yrotation Zrotation
											JOINT LeftHandThumb4
											{
												OFFSET 5.251778 -3.032120 3.032117
												CHANNELS 3 Xrotation Yrotation Zrotation
												End Site
												{
													OFFSET 0.000023 6.780014 0.000000
												}
											}
										}
									}
								}
							}
						}
					}
				}
				JOINT RightShoulder
				{
					OFFSET -12.896300 26.716293 -4.548400
					CHANNELS 3 Xrotation Yrotation Zrotation
					JOINT RightArm
					{
						OFFSET -19.027000 -4.857010 -1.718400
						CHANNELS 3 Xrotation Yrotation Zrotation
						JOINT RightForeArm
						{
							OFFSET -24.179897 0.000000 0.000000
							CHANNELS 3 Xrotation Yrotation Zrotation
							JOINT RightHand
							{
								OFFSET -27.156403 0.000000 0.000000
								CHANNELS 3 Xrotation Yrotation Zrotation
								JOINT RightHandThumb1
								{
									OFFSET -6.591202 -4.852203 5.988100
									CHANNELS 3 Xrotation Yrotation Zrotation
									JOINT RightHandThumb2
									{
										OFFSET -3.818176 -2.204422 2.204423
										CHANNELS 3 Xrotation Yrotation Zrotation
										JOINT RightHandThumb3
										{
											OFFSET -3.252098 -1.877594 1.877601
											CHANNELS 3 Xrotation Yrotation Zrotation
											JOINT RightHandThumb4
											{
												OFFSET -5.251778 -3.032120 3.032117
												CHANNELS 3 Xrotation Yrotation Zrotation
												End Site
												{
													OFFSET -0.000023 6.780014 0.000000
												}
											}
										}
									}
								}
								JOINT RightHandIndex1
								{
									OFFSET -16.029404 0.000000 0.000000
									CHANNELS 3 Xrotation Yrotation Zrotation
									JOINT RightHandIndex2
									{
										OFFSET -5.213303 0.000000 0.000000
										CHANNELS 3 Xrotation Yrotation Zrotation
										JOINT RightHandIndex3
										{
											OFFSET -6.386528 0.000000 0.000000
											CHANNELS 3 Xrotation Yrotation Zrotation
											JOINT RightHandIndex4
											{
												OFFSET -5.189026 0.000000 0.000000
												CHANNELS 3 Xrotation Yrotation Zrotation
												End Site
												{
													OFFSET 0.236702 5.183624 0.001972
												}
											}
										}
									}
								}
							}
						}
					}
				}
			}
		}
	}
	JOINT LeftUpLeg
	{
		OFFSET 14.073000 -7.904099 -1.463000
		CHANNELS 3 Xrotation Yrotation Zrotation
		JOINT LeftLeg
		{
			OFFSET -0.109806 -34.073280 4.093200
			CHANNELS 3 Xrotation Yrotation Zrotation
			JOINT LeftFoot
			{
				OFFSET 0.109806 -29.899420 -6.319000
				CHANNELS 3 Xrotation Yrotation Zrotation
				JOINT LeftToeBase
				{
					OFFSET 1.551100 -14.988700 20.535801
					CHANNELS 3 Xrotation Yrotation Zrotation
					JOINT LeftToe_End
					{
						OFFSET 0.221200 0.570800 13.248301
						CHANNELS 3 Xrotation Yrotation Zrotation
						End Site
						{
							OFFSET 0.000000 13.262435 0.000000
						}
					}
				}
			}
		}
	}
	JOINT RightUpLeg
	{
		OFFSET -13.839300 -7.904099 -1.463000
		CHANNELS 3 Xrotation Yrotation Zrotation
		JOINT RightLeg
		{
			OFFSET 0.109694 -34.073219 4.093300
			CHANNELS 3 Xrotation Yrotation Zrotation
			JOINT RightFoot
			{
				OFFSET -0.109694 -29.899384 -6.319200
				CHANNELS 3 Xrotation Yrotation Zrotation
				JOINT RightToeBase
				{
					OFFSET -1.551100 -14.988700 20.535801
					CHANNELS 3 Xrotation Yrotation Zrotation
					JOINT RightToe_End
					{
						OFFSET -0.221200 0.570900 13.248299
						CHANNELS 3 Xrotation Yrotation Zrotation
						End Site
						{
							OFFSET 0.000000 13.262440 0.000000
						}
					}
				}
			}
		}
	}
}
MOTION
Frames: 6
Frame Time: 0.033333
1.183154 84.998489 1.163862 -0.330201 33.239461 3.665955 2.189411 3.402862 -0.425113 5.063249 6.653738 -3.077448 5.092016 6.630612 -3.081937 1.238141 10.290884 2.775841 38.449146 50.929678 -37.636620 -0.000000 -0.000003 0.000002 0.427360 0.987649 -10.187836 10.627742 -3.205722 -66.038647 -0.000007 -45.379534 -0.000002 25.449891 16.034345 -19.515582 0.813656 3.251982 -28.087587 0.158781 1.473081 -12.303486 0.039801 0.740807 -6.150721 0.000001 0.000000 -0.000000 16.951307 4.654896 11.479872 5.586532 29.572479 2.207046 0.363194 12.361066 3.552942 0.000001 0.000001 0.000001 2.076206 -4.378136 11.463841 11.591624 24.858521 52.504279 -0.000026 39.257735 0.000012 2.377675 0.087530 -9.679984 -1.849245 -3.581796 -6.586148 6.484214 -30.246431 -1.526100 -0.331158 -10.639513 -3.200671 -0.000001 -0.000001 -0.000001 0.821422 -3.283485 28.083487 0.160192 -1.486874 12.297799 0.040177 -0.747740 6.147851 0.000000 -0.000002 0.000000 -23.048627 -0.180663 -0.276020 27.934545 1.237303 1.238358 -1.060731 -0.105584 0.051033 -2.228717 0.025265 -1.467168 -0.000000 -0.000002 -0.000000 -8.695361 -11.938286 -6.792284 28.668213 -8.174551 1.345736 -19.909583 -5.689634 2.274489 -0.862810 -0.000006 -0.000000 -0.000000 -0.000000 -0.000000 
1.312428 84.995392 -0.118021 -0.172983 33.337689 3.816019 2.229373 3.559193 -0.567616 5.078017 6.924300 -3.148134 5.110242 6.899537 -3.152174 1.688689 10.366631 2.277152 37.245117 51.219377 -36.880303 0.000000 0.000001 -0.000000 0.469639 0.731327 -10.246399 11.404856 -2.758694 -66.141250 -0.000002 -45.732580 -0.000003 24.609071 15.585351 -20.078629 0.813658 3.251982 -28.087594 0.158780 1.473081 -12.303487 0.039802 0.740807 -6.150714 0.000001 -0.000001 0.000002 16.951310 4.654895 11.479870 5.586533 29.572479 2.207047 0.363194 12.361063 3.552943 -0.000000 0.000002 -0.000002 1.984468 -4.429200 11.303159 10.948491 24.257393 52.993932 -0.000017 38.734566 0.000005 1.903633 0.607772 -9.045233 -1.849245 -3.581798 -6.586147 6.484213 -30.246431 -1.526100 -0.331159 -10.639510 -3.200670 0.000003 -0.000002 -0.000000 0.821420 -3.283484 28.083491 0.160192 -1.486873 12.297798 0.040177 -0.747742 6.147848 0.000000 -0.000000 -0.000001 -21.381716 -0.306671 0.265809 31.450002 2.351935 2.244525 -5.836867 -0.190935 0.881002 -3.610682 0.002533 -0.463104 0.000000 -0.000001 0.000001 -10.067167 -11.915848 -7.953583 28.811985 -7.934257 1.103130 -18.729113 -6.315632 3.718483 -0.458717 0.000005 0.000001 -0.000000 -0.000000 -0.000000 
1.497262 84.984589 -1.414155 -0.081298 33.466872 3.974891 2.247164 3.672556 -0.721032 5.074996 7.103589 -3.244610 5.112061 7.075949 -3.248617 2.042263 10.420420 1.921755 36.303640 51.485071 -36.286241 0.000000 0.000002 -0.000001 0.501311 0.530979 -10.287890 12.133440 -2.389144 -66.179581 0.000005 -45.977371 -0.000001 24.112550 15.268685 -20.768157 0.813657 3.251981 -28.087589 0.158781 1.473079 -12.303486 0.039801 0.740805 -6.150725 0.000002 0.000001 -0.000002 16.951310 4.654896 11.479872 5.586533 29.572479 2.207047 0.363195 12.361065 3.552940 -0.000000 0.000000 -0.000001 1.922445 -4.469274 11.193274 10.361131 23.723532 53.500807 -0.000012 38.398658 0.000012 1.747342 0.981382 -8.568932 -1.849244 -3.581799 -6.586149 6.484215 -30.246431 -1.526099 -0.331160 -10.639508 -3.200668 0.000000 0.000001 0.000003 0.821422 -3.283484 28.083487 0.160191 -1.486874 12.297797 0.040177 -0.747741 6.147849 0.000000 -0.000001 0.000000 -19.425591 -0.314553 0.914313 33.987370 3.221993 3.231501 -9.489389 -0.266424 1.471025 -4.771805 0.000301 -0.158661 0.000000 -0.000002 0.000000 -11.645326 -11.899324 -9.004601 29.468448 -7.943173 0.825171 -17.813328 -6.617611 4.385283 -0.183323 -0.000002 -0.000001 -0.000000 0.000000 0.000000 
1.742520 84.978683 -2.723930 -0.064475 33.641673 4.144391 2.230851 3.735881 -0.873911 5.040899 7.175897 -3.361241 5.084356 7.143814 -3.365762 2.290900 10.449745 1.721232 35.655561 51.702070 -35.858664 -0.000001 -0.000000 -0.000001 0.521730 0.396255 -10.312594 12.816682 -2.086976 -66.143907 0.000021 -46.106410 0.000016 23.902242 15.101359 -21.551171 0.813656 3.251982 -28.087589 0.158781 1.473082 -12.303492 0.039802 0.740807 -6.150718 0.000001 0.000001 -0.000001 16.951307 4.654896 11.479872 5.586533 29.572479 2.207049 0.363195 12.361072 3.552940 0.000000 -0.000002 -0.000001 1.887512 -4.504173 11.127818 9.875388 23.272835 53.956217 0.000012 38.259182 -0.000016 1.797652 1.189545 -8.271811 -1.849246 -3.581797 -6.586148 6.484216 -30.246431 -1.526104 -0.331159 -10.639511 -3.200673 -0.000000 -0.000001 0.000001 0.821421 -3.283486 28.083489 0.160191 -1.486872 12.297797 0.040177 -0.747742 6.147849 0.000000 -0.000001 -0.000000 -17.327584 -0.181428 1.698202 35.760272 3.677585 4.163278 -12.127962 -0.316352 1.924515 -5.801466 0.002476 -0.450644 -0.000001 0.000000 0.000001 -13.041832 -11.869193 -10.063032 29.934230 -7.880190 0.553819 -16.807327 -6.887404 5.059420 -0.014064 0.000005 -0.000001 -0.000000 0.000000 0.000000 
2.069546 84.972321 -4.026456 -0.294531 33.910062 4.343239 2.170821 3.747715 -1.042066 4.960012 7.138990 -3.480530 5.010840 7.101402 -3.486349 2.437960 10.455270 1.665631 35.309349 51.850620 -35.591043 0.000001 0.000000 -0.000001 0.531177 0.331749 -10.322830 13.452246 -1.823602 -66.051952 -0.000005 -46.121249 -0.000009 23.832808 15.093186 -22.348174 0.813657 3.251982 -28.087589 0.158781 1.473080 -12.303494 0.039804 0.740807 -6.150717 0.000000 -0.000000 0.000001 16.951310 4.654896 11.479874 5.586533 29.572479 2.207047 0.363196 12.361068 3.552941 -0.000000 0.000001 0.000001 1.879972 -4.539773 11.104995 9.562450 22.936404 54.252787 0.000004 38.314916 -0.000017 1.943732 1.194671 -8.111607 -1.849245 -3.581799 -6.586147 6.484214 -30.246427 -1.526099 -0.331160 -10.639507 -3.200675 0.000000 0.000000 0.000000 0.821422 -3.283487 28.083486 0.160192 -1.486871 12.297798 0.040177 -0.747742 6.147850 0.000001 -0.000000 -0.000003 -14.847122 0.377060 2.941519 36.197960 2.721068 4.957336 -13.887945 -0.277872 1.792516 -8.062811 0.000010 0.000008 -0.000001 0.000002 -0.000000 -14.003066 -11.846412 -11.048320 30.142875 -7.741913 0.268861 -15.750695 -6.923677 5.794822 -0.010603 -0.000004 0.000001 -0.000000 0.000000 0.000000 
2.484622 84.974594 -5.343005 -0.559761 34.026397 4.500590 2.063335 3.722544 -1.186011 4.825541 7.018591 -3.584392 4.884165 6.974936 -3.592180 2.502436 10.443676 1.712616 35.225700 51.924990 -35.458579 -0.000000 -0.000001 -0.000000 0.531339 0.330470 -10.322369 14.011296 -1.553865 -65.968795 0.000008 -46.029164 0.000001 23.694787 15.232913 -23.018542 0.813659 3.251982 -28.087587 0.158781 1.473081 -12.303487 0.039803 0.740808 -6.150720 -0.000001 0.000000 -0.000000 16.951305 4.654895 11.479873 5.586533 29.572479 2.207046 0.363194 12.361069 3.552938 0.000000 -0.000003 -0.000000 1.894274 -4.581483 11.114028 9.484732 22.757359 54.289847 -0.000007 38.527120 0.000005 1.988139 1.019687 -8.007520 -1.849244 -3.581796 -6.586152 6.484214 -30.246431 -1.526103 -0.331158 -10.639509 -3.200671 -0.000000 -0.000001 0.000002 0.821421 -3.283483 28.083486 0.160192 -1.486873 12.297798 0.040177 -0.747740 6.147852 -0.000000 -0.000001 0.000001 -12.293277 1.138782 4.203219 36.015888 0.620792 5.602445 -15.129129 -0.175773 1.389309 -10.568509 -0.000015 -0.000002 -0.000000 -0.000003 -0.000002 -14.814988 -11.826494 -12.032200 30.105602 -7.571194 -0.027253 -14.543874 -6.887258 6.596425 -0.012904 0.000003 0.000002 -0.000000 -0.000000 -0.000000 
